<svg xmlns="http://www.w3.org/2000/svg" width="201" height="27" fill-rule="evenodd"><g fill="#1d1d1b"><path d="M188.923 26.316v-2.66h1.095c.55 0 1.005-.025 1.36-.074s.63-.14.827-.266.335-.3.414-.548.118-.552.118-.946l-.088-4.612c0-1.183.242-2.026.724-2.528s1.266-.843 2.35-1.02v-.12c-1.085-.177-1.867-.517-2.35-1.02s-.724-1.346-.724-2.528l.088-4.613c0-.374-.04-.684-.118-.93s-.217-.433-.414-.562-.472-.217-.827-.266-.8-.074-1.36-.074h-1.095V.887h2.455c1.9 0 3.3.315 4.198.946s1.33 1.755 1.33 3.37l-.044 1.36-.118 1.124-.118 1.08-.045 1.227c0 .257.064.508.193.754s.344.468.65.665.715.36 1.228.488 1.153.203 1.92.222v2.957c-.768.02-1.4.094-1.92.222s-.922.3-1.228.487-.522.42-.65.666a1.62 1.62 0 0 0-.193.754l.045 1.227.118 1.08.118 1.124.044 1.36c0 .808-.108 1.488-.325 2.04s-.552.995-1.005 1.33-1.025.576-1.715.724-1.518.222-2.483.222h-2.455zm-13.13-3.55V7.983h4.17l.384 3.134h.118c.7-1.222 1.567-2.1 2.573-2.66a6.56 6.56 0 0 1 3.193-.828c.7 0 1.227.055 1.612.163a9.24 9.24 0 0 1 1.196.43l-1.004 4.257-1.228-.3c-.365-.07-.813-.104-1.345-.104-.848 0-1.686.25-2.513.754s-1.518 1.375-2.07 2.617v7.333h-5.086zM53.155 11.472c-1.46 0-2.395.7-2.8 2.13h5.174c-.217-1.42-1.005-2.13-2.365-2.13m.355 11.65c-1.163 0-2.252-.172-3.268-.518s-1.892-.847-2.63-1.507-1.32-1.474-1.745-2.44-.635-2.06-.635-3.282c0-1.202.216-2.286.65-3.253s1-1.778 1.73-2.44a7.62 7.62 0 0 1 2.483-1.523 8.07 8.07 0 0 1 2.884-.532c1.163 0 2.182.188 3.06.562a6.25 6.25 0 0 1 2.203 1.537c.6.65 1.035 1.4 1.33 2.277s.443 1.794.443 2.78a10.32 10.32 0 0 1-.074 1.271l-.133.858h-9.492c.217.828.65 1.43 1.3 1.803s1.518.562 2.602.562a6.76 6.76 0 0 0 1.73-.222c.562-.147 1.168-.37 1.818-.665l1.657 3.016a10.3 10.3 0 0 1-2.928 1.287c-1.064.285-2.06.428-2.986.428m88.674-.354V7.983h4.14l.355 1.774h.118c.6-.572 1.3-1.07 2.1-1.493s1.754-.636 2.84-.636c1.636 0 2.828.547 3.577 1.64s1.124 2.558 1.124 4.4v9.107h-5.086V14.3c0-.827-.123-1.428-.37-1.803s-.695-.562-1.346-.562c-.473 0-.888.1-1.242.296a6.22 6.22 0 0 0-1.124.828v9.698h-5.086z"/><path d="M136.566 7.984v10.822h3.88v3.962h-14.163v-3.962h5.196v-6.86h-5.196V7.984h10.282zM133.845 0c.946 0 1.725.28 2.336.842s.917 1.286.917 2.173-.307 1.602-.917 2.144-1.4.813-2.336.813-1.725-.27-2.335-.813-.917-1.257-.917-2.144.306-1.6.917-2.173S132.9 0 133.845 0zm32.37 11.472c-1.458 0-2.395.7-2.8 2.13h5.175c-.217-1.42-1.006-2.13-2.366-2.13m.355 11.65c-1.164 0-2.25-.172-3.267-.518s-1.893-.847-2.63-1.507a7 7 0 0 1-1.745-2.44c-.423-.966-.636-2.06-.636-3.282 0-1.202.217-2.286.65-3.253s1-1.778 1.73-2.44a7.62 7.62 0 0 1 2.483-1.523c.936-.355 1.897-.532 2.883-.532 1.163 0 2.183.188 3.06.562s1.6.887 2.202 1.537 1.036 1.4 1.33 2.277.444 1.794.444 2.78a10.3 10.3 0 0 1-.073 1.27l-.134.858h-9.5c.216.828.65 1.43 1.3 1.803s1.517.562 2.602.562a6.77 6.77 0 0 0 1.73-.222c.562-.148 1.168-.37 1.818-.665l1.657 3.016a10.34 10.34 0 0 1-2.928 1.287c-1.064.287-2.06.428-2.987.428m-144.23.002c-1.223 0-2.252-.16-3.1-.474s-1.518-.763-2.04-1.345-.902-1.28-1.14-2.1-.355-1.72-.355-2.706v-4.553h-3.548V8.16l3.785-.177.65-4.436h4.21v4.436h5.855v3.962H20.8V16.4c0 1.064.24 1.788.725 2.173s1.197.577 2.144.577c.512 0 1-.045 1.433-.134s.862-.202 1.257-.34l.887 3.667-2.188.518c-.808.167-1.715.25-2.72.25m62.325.01c-1.282 0-2.568-.217-3.86-.65s-2.4-.966-3.356-1.597l2.13-3.134c.946.552 1.912.966 2.898 1.242a10.71 10.71 0 0 0 2.897.414c.65 0 1.12-.08 1.405-.236s.428-.375.428-.65c0-.178-.054-.325-.162-.444s-.286-.222-.532-.3l-1.006-.266-1.552-.34c-1.025-.217-1.888-.478-2.587-.784s-1.27-.655-1.715-1.05a3.54 3.54 0 0 1-.961-1.316c-.197-.482-.296-1-.296-1.582 0-.728.167-1.4.503-1.98s.808-1.093 1.42-1.507 1.35-.735 2.218-.96 1.833-.34 2.898-.34c1.4 0 2.646.222 3.74.665s2.035.912 2.824 1.405l-2.248 3.015c-.768-.453-1.567-.793-2.395-1.02a9.08 9.08 0 0 0-2.395-.34c-.473 0-.847.07-1.123.207s-.414.345-.414.62c0 .158.054.286.162.384s.28.193.518.28a6.24 6.24 0 0 0 .946.252l1.45.325c1.104.256 2.025.532 2.765.828s1.33.636 1.774 1.02.753.818.93 1.3.266 1.03.266 1.64a4 4 0 0 1-.488 1.937c-.325.602-.808 1.123-1.45 1.567s-1.43.8-2.365 1.035-2.025.37-3.267.37"/></g><path d="M69.033 23.122a8.03 8.03 0 0 1-2.853-.518 7.32 7.32 0 0 1-2.439-1.508c-.7-.66-1.277-1.473-1.7-2.44s-.636-2.06-.636-3.282.212-2.316.636-3.282.99-1.78 1.7-2.44 1.522-1.163 2.44-1.508a8.05 8.05 0 0 1 2.853-.517c.966 0 1.907.173 2.824.517s1.73.848 2.44 1.508 1.28 1.474 1.715 2.44.65 2.06.65 3.282-.217 2.316-.65 3.282-1.005 1.78-1.715 2.44a7.32 7.32 0 0 1-2.439 1.508c-.917.345-1.858.518-2.824.518" fill="#e1000d"/><g fill="#1d1d1b"><path d="M117.54 11.472c-1.46 0-2.395.7-2.8 2.13h5.176c-.217-1.42-1.006-2.13-2.366-2.13m.355 11.65c-1.164 0-2.252-.172-3.268-.518s-1.892-.847-2.63-1.507-1.32-1.474-1.744-2.44-.636-2.06-.636-3.282c0-1.202.216-2.286.65-3.253s1-1.778 1.73-2.44a7.63 7.63 0 0 1 2.483-1.523c.935-.355 1.898-.532 2.884-.532 1.163 0 2.183.188 3.06.562a6.25 6.25 0 0 1 2.203 1.537 6.41 6.41 0 0 1 1.33 2.277c.296.867.444 1.794.444 2.78a10.32 10.32 0 0 1-.074 1.271l-.133.858h-9.5c.216.828.65 1.43 1.3 1.803s1.517.562 2.6.562a6.76 6.76 0 0 0 1.73-.222c.562-.147 1.17-.37 1.818-.665l1.657 3.016a10.3 10.3 0 0 1-2.928 1.287c-1.064.285-2.06.428-2.986.428m-88.783-.354V2.187h5.085v4.8l-.295 2.602h.118c.473-.473 1.094-.916 1.863-1.33s1.705-.62 2.8-.62c1.616 0 2.8.547 3.548 1.64s1.123 2.558 1.123 4.4v9.107H38.29V14.3c0-.827-.124-1.428-.37-1.803s-.694-.562-1.345-.562c-.473 0-.887.1-1.242.296s-.73.473-1.124.828v9.698h-5.085z"/><path d="M103.674 23.122c-1.222 0-2.25-.16-3.1-.474s-1.517-.763-2.04-1.345-.902-1.28-1.14-2.1-.355-1.72-.355-2.706v-4.553H93.49V8.16l3.785-.177.65-4.436h4.198v4.436h5.854v3.962h-5.854V16.4c0 1.064.24 1.788.725 2.173s1.197.577 2.143.577a7.23 7.23 0 0 0 1.435-.134c.435-.09.86-.202 1.255-.34l.888 3.667-2.188.518c-.8.167-1.715.25-2.72.25M9.196 26.316c-.966 0-1.794-.074-2.483-.222s-1.262-.4-1.715-.724-.8-.78-1.006-1.33-.325-1.232-.325-2.04l.044-1.36.104-1.124.103-1.08.045-1.227a1.62 1.62 0 0 0-.193-.754c-.128-.246-.34-.468-.636-.666s-.7-.36-1.2-.487S.77 15.1 0 15.08v-2.957c.77-.02 1.4-.094 1.923-.222s.916-.3 1.2-.488.508-.418.636-.665a1.62 1.62 0 0 0 .193-.754l-.045-1.227-.103-1.08L3.7 6.563l-.044-1.36c0-.808.108-1.488.325-2.04a2.96 2.96 0 0 1 1.006-1.331c.453-.335 1.025-.577 1.715-.725S8.23.887 9.196.887h2.455v2.66h-1.095c-.57 0-1.035.025-1.4.074s-.632.138-.828.266-.336.316-.414.562-.12.557-.12.93l.06 2.218.06 2.395c0 1.182-.242 2.026-.725 2.528s-1.267.843-2.35 1.02v.12c1.083.177 1.867.517 2.35 1.02s.725 1.345.725 2.528l-.06 2.395-.06 2.217c0 .394.04.7.12.946a1.01 1.01 0 0 0 .414.548c.196.127.473.216.828.266a10.38 10.38 0 0 0 1.39.074h1.095v2.66H9.196z"/></g></svg>